<?xml version="1.0" encoding="UTF-8" standalone="no"?>
<!DOCTYPE svg PUBLIC "-//W3C//DTD SVG 1.1//EN" "http://www.w3.org/Graphics/SVG/1.1/DTD/svg11.dtd">
<svg width="100%" height="100%" viewBox="0 0 838 288" version="1.1" xmlns="http://www.w3.org/2000/svg" xmlns:xlink="http://www.w3.org/1999/xlink" xml:space="preserve" xmlns:serif="http://www.serif.com/" style="fill-rule:evenodd;clip-rule:evenodd;stroke-linejoin:round;stroke-miterlimit:2;">
    <g transform="matrix(1,0,0,1,-61.318615,-351.189667)">
        <g transform="matrix(1,0,0,1,53.678377,-5)">
            <g id="Text" transform="matrix(1,0,0,1,-567,189.530494)">
                <path d="M601.398,230.034L598.061,238.71C596.279,243.293 595.2,247.031 594.825,249.922C594.45,252.813 594.654,255.05 595.437,256.634C596.22,258.217 597.504,259.326 599.287,259.959C601.07,260.592 603.228,260.951 605.762,261.034L605.762,263.534C602.978,263.368 600.341,263.263 597.849,263.222C595.358,263.18 592.803,263.159 590.186,263.159C588.404,263.159 586.683,263.18 585.024,263.222C583.365,263.263 581.911,263.368 580.661,263.534L580.661,261.034C582.478,260.667 584.3,259.538 586.125,257.646C587.95,255.755 589.745,252.509 591.512,247.909L619.911,174.784C621.244,174.884 622.69,174.935 624.249,174.935C625.807,174.935 627.253,174.884 628.587,174.784L658.936,253.034C660.137,256 661.453,258.054 662.886,259.196C664.319,260.338 665.628,260.951 666.811,261.034L666.811,263.534C664.345,263.368 661.429,263.263 658.062,263.222C654.696,263.18 651.279,263.159 647.811,263.159C643.961,263.159 640.344,263.18 636.962,263.222C633.579,263.263 630.862,263.368 628.811,263.534L628.811,261.034C633.061,260.868 635.757,260.138 636.899,258.847C638.041,257.555 637.779,254.784 636.112,250.534L628.593,230.034L601.398,230.034ZM627.676,227.534L615.319,193.845L602.36,227.534L627.676,227.534ZM730.604,215.919C730.626,216.661 730.637,217.433 730.637,218.233L730.637,251.909C730.637,255.409 731.178,257.784 732.262,259.034C733.345,260.284 735.22,260.909 737.887,260.909L737.887,263.534C736.37,263.451 734.091,263.347 731.049,263.222C728.007,263.097 725.036,263.034 722.137,263.034C719.086,263.034 716.111,263.097 713.211,263.222C710.311,263.347 708.12,263.451 706.637,263.534L706.637,260.909C708.836,260.909 710.386,260.284 711.286,259.034C712.187,257.784 712.637,255.409 712.637,251.909L712.637,213.085C712.637,211.002 712.47,209.176 712.137,207.609C711.803,206.042 711.158,204.817 710.199,203.934C709.241,203.05 707.812,202.608 705.912,202.608C703.712,202.608 701.69,203.233 699.849,204.483C698.007,205.733 696.532,207.463 695.424,209.671C694.316,211.879 693.762,214.359 693.762,217.11L693.762,251.909C693.762,255.409 694.212,257.784 695.111,259.034C696.011,260.284 697.561,260.909 699.762,260.909L699.762,263.534C698.378,263.451 696.298,263.347 693.523,263.222C690.749,263.097 687.911,263.034 685.012,263.034C681.811,263.034 678.553,263.097 675.236,263.222C671.92,263.347 669.428,263.451 667.762,263.534L667.762,260.909C670.678,260.909 672.741,260.284 673.949,259.034C675.158,257.784 675.762,255.409 675.762,251.909L675.762,212.483C675.762,208.733 675.195,205.963 674.062,204.171C672.928,202.379 670.828,201.483 667.762,201.483L667.762,198.858C670.428,199.108 673.012,199.233 675.512,199.233C678.978,199.233 682.24,199.088 685.299,198.796C688.357,198.504 691.178,198.067 693.762,197.483L693.762,208.784C695.779,204.618 698.487,201.63 701.887,199.821C705.286,198.013 709.036,197.108 713.137,197.108C716.603,197.108 719.432,197.563 721.624,198.472C723.816,199.381 725.545,200.56 726.811,202.009C728.195,203.575 729.178,205.642 729.762,208.209C729.85,208.599 729.932,209.007 730.008,209.433C732.233,204.716 735.147,201.496 738.748,199.771C742.456,197.996 746.461,197.108 750.762,197.108C754.228,197.108 757.057,197.563 759.249,198.472C761.441,199.381 763.17,200.56 764.436,202.009C765.82,203.575 766.803,205.642 767.387,208.209C767.97,210.776 768.262,214.118 768.262,218.233L768.262,251.909C768.262,255.409 768.866,257.784 770.074,259.034C771.283,260.284 773.345,260.909 776.262,260.909L776.262,263.534C774.695,263.451 772.316,263.347 769.124,263.222C765.932,263.097 762.811,263.034 759.762,263.034C756.711,263.034 753.736,263.097 750.836,263.222C747.936,263.347 745.745,263.451 744.262,263.534L744.262,260.909C746.461,260.909 748.011,260.284 748.911,259.034C749.812,257.784 750.262,255.409 750.262,251.909L750.262,213.085C750.262,211.002 750.07,209.176 749.687,207.609C749.303,206.042 748.582,204.817 747.523,203.934C746.465,203.05 744.886,202.608 742.787,202.608C740.587,202.608 738.565,203.284 736.724,204.634C734.882,205.984 733.407,207.78 732.299,210.021C731.408,211.823 730.843,213.789 730.604,215.919ZM800.295,224.909C800.215,225.719 800.162,226.561 800.136,227.435C800.103,228.535 800.086,229.66 800.086,230.81C800.086,236.576 800.89,241.252 802.498,244.835C804.106,248.418 806.165,251.01 808.673,252.609C811.182,254.209 813.744,255.009 816.362,255.009C818.061,255.009 819.848,254.751 821.723,254.234C823.598,253.718 825.494,252.731 827.41,251.272C829.327,249.814 831.119,247.718 832.785,244.983L835.061,245.835C834.095,248.934 832.533,251.988 830.374,254.996C828.216,258.005 825.453,260.471 822.086,262.396C818.719,264.322 814.702,265.284 810.035,265.284C804.437,265.284 799.466,264.084 795.124,261.685C790.783,259.285 787.378,255.61 784.911,250.659C782.445,245.709 781.211,239.442 781.211,231.858C781.211,224.125 782.528,217.688 785.161,212.547C787.795,207.406 791.424,203.547 796.049,200.972C800.674,198.396 805.92,197.108 811.785,197.108C819.119,197.108 824.873,199.288 829.048,203.646C833.223,208.005 835.311,215.093 835.311,224.909L800.295,224.909ZM799.968,222.534L819.561,222.534C819.678,218.451 819.445,214.68 818.862,211.222C818.278,207.763 817.353,204.993 816.086,202.909C814.819,200.826 813.144,199.784 811.061,199.784C808.178,199.784 805.72,201.613 803.686,205.271C801.729,208.792 800.49,214.546 799.968,222.534ZM883.561,197.108C886.261,197.108 888.453,197.679 890.137,198.821C891.82,199.963 893.054,201.413 893.837,203.172C894.62,204.93 895.012,206.751 895.012,208.634C895.012,211.717 894.116,214.238 892.324,216.196C890.533,218.155 888.178,219.134 885.262,219.134C882.362,219.134 880.083,218.409 878.424,216.959C876.765,215.509 875.936,213.567 875.936,211.134C875.936,208.8 876.473,206.859 877.549,205.309C878.624,203.758 879.928,202.476 881.461,201.46C880.328,201.127 879.178,201.134 878.012,201.483C876.378,201.733 874.852,202.392 873.436,203.459C872.019,204.526 870.811,205.83 869.811,207.372C868.811,208.914 868.032,210.576 867.474,212.359C866.916,214.143 866.637,215.876 866.637,217.56L866.637,250.659C866.637,254.693 867.612,257.41 869.561,258.81C871.511,260.209 874.453,260.909 878.387,260.909L878.387,263.534C876.47,263.451 873.674,263.347 869.999,263.222C866.324,263.097 862.503,263.034 858.537,263.034C855.153,263.034 851.753,263.097 848.336,263.222C844.919,263.347 842.353,263.451 840.637,263.534L840.637,260.909C843.553,260.909 845.616,260.284 846.824,259.034C848.033,257.784 848.637,255.409 848.637,251.909L848.637,212.483C848.637,208.733 848.07,205.963 846.936,204.171C845.803,202.379 843.703,201.483 840.637,201.483L840.637,198.858C843.303,199.108 845.887,199.233 848.387,199.233C851.853,199.233 855.115,199.088 858.174,198.796C861.232,198.504 864.053,198.067 866.637,197.483L866.637,209.134C867.654,206.867 868.978,204.829 870.611,203.021C872.244,201.214 874.157,199.776 876.349,198.709C878.541,197.642 880.945,197.108 883.561,197.108ZM913.936,166.659C917.436,166.659 920.207,167.513 922.249,169.222C924.29,170.93 925.311,173.284 925.311,176.284C925.311,179.284 924.29,181.638 922.249,183.347C920.207,185.055 917.436,185.909 913.936,185.909C910.436,185.909 907.665,185.055 905.624,183.347C903.582,181.638 902.561,179.284 902.561,176.284C902.561,173.284 903.582,170.93 905.624,169.222C907.665,167.513 910.436,166.659 913.936,166.659ZM923.686,197.534L923.686,251.909C923.686,255.409 924.29,257.784 925.499,259.034C926.707,260.284 928.77,260.909 931.686,260.909L931.686,263.534C930.186,263.451 927.853,263.347 924.686,263.222C921.52,263.097 918.311,263.034 915.061,263.034C911.811,263.034 908.52,263.097 905.186,263.222C901.853,263.347 899.353,263.451 897.686,263.534L897.686,260.909C900.603,260.909 902.665,260.284 903.874,259.034C905.082,257.784 905.686,255.409 905.686,251.909L905.686,212.534C905.686,208.784 905.124,206.013 903.999,204.222C902.874,202.43 900.77,201.534 897.686,201.534L897.686,198.909C900.353,199.159 902.936,199.284 905.436,199.284C908.936,199.284 912.207,199.138 915.249,198.847C918.29,198.555 921.103,198.118 923.686,197.534ZM968.311,197.108C971.578,197.108 974.561,197.467 977.261,198.184C979.961,198.9 982.211,199.826 984.012,200.96C986.128,202.259 987.798,203.897 989.024,205.872C990.249,207.847 990.861,210.093 990.861,212.608C990.861,215.559 989.936,217.976 988.086,219.859C986.236,221.743 983.878,222.685 981.012,222.685C978.078,222.685 975.736,221.843 973.986,220.159C972.236,218.476 971.361,216.234 971.361,213.435C971.361,210.768 972.182,208.539 973.823,206.747C975.465,204.955 977.394,203.768 979.611,203.185C978.928,202.334 977.924,201.622 976.599,201.047C975.274,200.472 973.778,200.185 972.111,200.185C969.477,200.185 967.181,200.922 965.223,202.396C963.264,203.871 961.623,205.942 960.298,208.608C958.973,211.275 957.969,214.4 957.285,217.983C956.602,221.567 956.26,225.492 956.26,229.759C956.26,236.192 957.068,241.251 958.686,244.935C960.303,248.618 962.378,251.21 964.911,252.71C967.444,254.21 970.086,254.96 972.836,254.96C974.402,254.96 976.123,254.693 977.998,254.159C979.873,253.625 981.786,252.621 983.735,251.146C985.685,249.672 987.494,247.551 989.16,244.784L991.387,245.585C990.453,248.651 988.941,251.714 986.849,254.771C984.757,257.829 982.044,260.346 978.711,262.321C975.378,264.297 971.311,265.284 966.512,265.284C961.095,265.284 956.191,264.101 951.799,261.734C947.407,259.368 943.907,255.693 941.299,250.709C938.691,245.725 937.387,239.342 937.387,231.56C937.387,224.026 938.728,217.705 941.411,212.597C944.094,207.489 947.782,203.63 952.474,201.021C957.166,198.413 962.445,197.108 968.311,197.108ZM1013.861,264.409C1010.145,264.409 1007.037,263.701 1004.537,262.284C1002.037,260.868 1000.191,258.967 998.999,256.584C997.807,254.201 997.211,251.592 997.211,248.759C997.211,245.192 998.027,242.28 999.661,240.021C1001.294,237.763 1003.407,235.938 1005.999,234.547C1008.591,233.156 1011.328,231.993 1014.212,231.06C1017.095,230.126 1019.832,229.222 1022.424,228.347C1025.015,227.472 1027.127,226.438 1028.76,225.247C1030.394,224.056 1031.211,222.502 1031.211,220.585L1031.211,210.81C1031.211,208.609 1030.865,206.667 1030.174,204.984C1029.482,203.301 1028.411,201.985 1026.962,201.034C1025.512,200.084 1023.603,199.608 1021.236,199.608C1019.603,199.608 1017.949,199.838 1016.274,200.296C1014.599,200.754 1013.203,201.55 1012.086,202.685C1014.47,203.467 1016.295,204.713 1017.561,206.421C1018.827,208.129 1019.461,210.101 1019.461,212.335C1019.461,215.168 1018.494,217.401 1016.561,219.034C1014.628,220.667 1012.295,221.483 1009.56,221.483C1006.594,221.483 1004.336,220.55 1002.786,218.684C1001.236,216.817 1000.461,214.576 1000.461,211.96C1000.461,209.543 1001.065,207.531 1002.273,205.922C1003.481,204.313 1005.194,202.826 1007.412,201.46C1009.677,200.076 1012.469,199.005 1015.786,198.246C1019.103,197.488 1022.678,197.108 1026.511,197.108C1030.328,197.108 1033.769,197.504 1036.836,198.296C1039.902,199.088 1042.502,200.559 1044.636,202.71C1046.553,204.61 1047.795,206.96 1048.361,209.76C1048.927,212.56 1049.211,216.06 1049.211,220.259L1049.211,254.259C1049.211,256.342 1049.423,257.792 1049.848,258.609C1050.273,259.426 1050.978,259.835 1051.961,259.835C1052.728,259.835 1053.465,259.627 1054.174,259.21C1054.882,258.793 1055.644,258.276 1056.461,257.659L1057.761,259.784C1055.961,261.267 1053.931,262.409 1051.674,263.209C1049.416,264.009 1046.853,264.409 1043.986,264.409C1040.869,264.409 1038.406,263.98 1036.598,263.122C1034.79,262.264 1033.491,261.072 1032.699,259.547C1031.907,258.021 1031.486,256.259 1031.435,254.259C1029.486,257.409 1027.099,259.888 1024.274,261.696C1021.449,263.505 1017.978,264.409 1013.861,264.409ZM1022.787,256.409C1024.437,256.409 1025.949,256.005 1027.324,255.196C1028.699,254.388 1029.994,253.101 1031.211,251.335L1031.211,225.71C1030.461,226.926 1029.415,228.038 1028.073,229.047C1026.731,230.055 1025.31,231.076 1023.81,232.109C1022.31,233.143 1020.89,234.293 1019.549,235.56C1018.207,236.826 1017.107,238.364 1016.249,240.172C1015.39,241.98 1014.961,244.201 1014.961,246.835C1014.961,250.068 1015.682,252.472 1017.124,254.047C1018.566,255.622 1020.453,256.409 1022.787,256.409ZM1106.535,197.108C1110.103,197.108 1112.974,197.563 1115.148,198.472C1117.323,199.381 1119.044,200.56 1120.311,202.009C1121.695,203.575 1122.695,205.608 1123.312,208.108C1123.928,210.608 1124.236,213.983 1124.236,218.233L1124.236,251.909C1124.236,255.409 1124.84,257.784 1126.049,259.034C1127.257,260.284 1129.32,260.909 1132.236,260.909L1132.236,263.534C1130.67,263.451 1128.291,263.347 1125.099,263.222C1121.907,263.097 1118.786,263.034 1115.736,263.034C1112.536,263.034 1109.41,263.097 1106.36,263.222C1103.31,263.347 1101.019,263.451 1099.486,263.534L1099.486,260.909C1101.986,260.909 1103.736,260.284 1104.736,259.034C1105.736,257.784 1106.236,255.409 1106.236,251.909L1106.236,213.085C1106.236,211.002 1106.028,209.176 1105.611,207.609C1105.195,206.042 1104.432,204.817 1103.323,203.934C1102.214,203.05 1100.611,202.608 1098.512,202.608C1096.211,202.608 1094.123,203.233 1092.248,204.483C1090.373,205.733 1088.881,207.463 1087.773,209.671C1086.665,211.879 1086.111,214.359 1086.111,217.11L1086.111,251.909C1086.111,255.409 1086.624,257.784 1087.648,259.034C1088.673,260.284 1090.411,260.909 1092.861,260.909L1092.861,263.534C1091.378,263.451 1089.187,263.347 1086.286,263.222C1083.386,263.097 1080.411,263.034 1077.361,263.034C1074.161,263.034 1070.902,263.097 1067.586,263.222C1064.27,263.347 1061.778,263.451 1060.111,263.534L1060.111,260.909C1063.028,260.909 1065.09,260.284 1066.299,259.034C1067.507,257.784 1068.111,255.409 1068.111,251.909L1068.111,212.483C1068.111,208.733 1067.545,205.963 1066.411,204.171C1065.278,202.379 1063.178,201.483 1060.111,201.483L1060.111,198.858C1062.778,199.108 1065.361,199.233 1067.861,199.233C1071.327,199.233 1074.59,199.088 1077.648,198.796C1080.707,198.504 1083.528,198.067 1086.111,197.483L1086.111,208.784C1088.178,204.517 1090.998,201.505 1094.573,199.746C1098.148,197.988 1102.135,197.108 1106.535,197.108ZM1157.611,287.034L1157.611,284.509C1160.91,284.226 1163.744,283.272 1166.111,281.647C1168.478,280.022 1170.282,277.239 1171.524,273.297C1172.766,269.355 1173.386,263.859 1173.386,256.81L1173.386,188.284C1173.386,185.201 1173.161,182.93 1172.711,181.472C1172.262,180.013 1171.357,179.013 1169.999,178.472C1168.64,177.93 1166.644,177.618 1164.011,177.534L1164.011,175.034C1166.061,175.118 1168.777,175.201 1172.161,175.284C1175.544,175.368 1179.102,175.409 1182.836,175.409C1186.569,175.409 1190.223,175.368 1193.797,175.284C1197.372,175.201 1200.319,175.118 1202.636,175.034L1202.636,177.534C1200.002,177.618 1198.006,177.93 1196.648,178.472C1195.29,179.013 1194.386,180.013 1193.936,181.472C1193.486,182.93 1193.261,185.201 1193.261,188.284L1193.261,234.034C1193.261,237.451 1193.257,241.147 1193.249,245.122C1193.24,249.097 1193.09,252.96 1192.798,256.71C1192.507,260.46 1191.953,263.776 1191.136,266.659C1189.47,272.443 1185.853,277.285 1180.286,281.185C1174.719,285.084 1167.16,287.034 1157.611,287.034ZM1226.119,224.909C1226.04,225.719 1225.987,226.561 1225.961,227.435C1225.927,228.535 1225.911,229.66 1225.911,230.81C1225.911,236.576 1226.715,241.252 1228.323,244.835C1229.931,248.418 1231.989,251.01 1234.498,252.609C1237.006,254.209 1239.569,255.009 1242.186,255.009C1243.885,255.009 1245.672,254.751 1247.547,254.234C1249.422,253.718 1251.318,252.731 1253.235,251.272C1255.152,249.814 1256.943,247.718 1258.61,244.983L1260.885,245.835C1259.919,248.934 1258.357,251.988 1256.199,254.996C1254.041,258.005 1251.278,260.471 1247.911,262.396C1244.544,264.322 1240.527,265.284 1235.86,265.284C1230.261,265.284 1225.291,264.084 1220.949,261.685C1216.607,259.285 1213.203,255.61 1210.736,250.659C1208.269,245.709 1207.036,239.442 1207.036,231.858C1207.036,224.125 1208.352,217.688 1210.986,212.547C1213.619,207.406 1217.249,203.547 1221.874,200.972C1226.499,198.396 1231.744,197.108 1237.61,197.108C1244.943,197.108 1250.697,199.288 1254.873,203.646C1259.048,208.005 1261.135,215.093 1261.135,224.909L1226.119,224.909ZM1225.793,222.534L1245.385,222.534C1245.503,218.451 1245.269,214.68 1244.686,211.222C1244.103,207.763 1243.178,204.993 1241.911,202.909C1240.644,200.826 1238.969,199.784 1236.885,199.784C1234.003,199.784 1231.544,201.613 1229.51,205.271C1227.553,208.792 1226.314,214.546 1225.793,222.534ZM1386.26,197.108C1389.794,197.108 1392.865,197.563 1395.473,198.472C1398.081,199.381 1399.977,200.218 1401.161,200.983C1404.011,202.934 1405.752,201.684 1406.385,197.233L1409.036,197.233C1408.869,199.618 1408.744,202.489 1408.661,205.847C1408.577,209.205 1408.536,213.667 1408.536,219.233L1405.885,219.233C1405.486,216.15 1404.707,213.125 1403.548,210.159C1402.39,207.193 1400.707,204.735 1398.499,202.784C1396.29,200.834 1393.411,199.858 1389.86,199.858C1387.443,199.858 1385.418,200.559 1383.785,201.959C1382.151,203.359 1381.334,205.343 1381.334,207.909C1381.334,210.409 1382.084,212.605 1383.584,214.497C1385.084,216.389 1387.018,218.181 1389.385,219.872C1391.752,221.563 1394.202,223.376 1396.735,225.31C1399.553,227.359 1402.078,229.4 1404.311,231.434C1406.544,233.467 1408.332,235.696 1409.673,238.121C1411.015,240.546 1411.686,243.417 1411.686,246.733C1411.686,250.517 1410.598,253.801 1408.423,256.584C1406.248,259.367 1403.381,261.513 1399.823,263.021C1396.264,264.53 1392.318,265.284 1387.985,265.284C1385.502,265.284 1383.285,265.038 1381.335,264.547C1379.386,264.055 1377.711,263.443 1376.311,262.71C1375.177,262.142 1374.148,261.629 1373.223,261.171C1372.299,260.713 1371.394,260.351 1370.51,260.085C1369.677,259.818 1368.952,260.089 1368.335,260.896C1367.719,261.704 1367.244,262.875 1366.911,264.409L1364.26,264.409C1364.427,261.743 1364.552,258.493 1364.635,254.659C1364.719,250.826 1364.76,245.743 1364.76,239.409L1367.411,239.409C1367.944,243.926 1368.865,247.909 1370.173,251.359C1371.481,254.809 1373.29,257.513 1375.598,259.472C1377.907,261.43 1380.794,262.409 1384.26,262.409C1385.728,262.409 1387.128,262.109 1388.461,261.509C1389.795,260.909 1390.895,259.959 1391.761,258.659C1392.628,257.36 1393.061,255.651 1393.061,253.534C1393.061,249.868 1391.865,246.817 1389.473,244.384C1387.081,241.95 1384.069,239.317 1380.436,236.483C1377.736,234.317 1375.198,232.188 1372.823,230.097C1370.448,228.006 1368.51,225.689 1367.01,223.147C1365.51,220.606 1364.76,217.676 1364.76,214.358C1364.76,210.608 1365.764,207.459 1367.773,204.909C1369.781,202.36 1372.427,200.422 1375.71,199.097C1378.994,197.771 1382.51,197.108 1386.26,197.108ZM1311.118,217.458L1297.237,263.784C1295.903,263.684 1294.557,263.634 1293.198,263.634C1291.84,263.634 1290.477,263.684 1289.112,263.784L1269.362,208.483C1268.127,205.15 1266.839,203.15 1265.498,202.483C1264.157,201.817 1263.028,201.483 1262.112,201.483L1262.112,198.858C1264.778,199.108 1267.545,199.296 1270.411,199.421C1273.278,199.546 1276.427,199.608 1279.86,199.608C1282.443,199.608 1285.172,199.525 1288.047,199.358C1290.922,199.192 1293.61,199.025 1296.11,198.858L1296.11,201.483C1294.227,201.483 1292.606,201.604 1291.248,201.847C1289.89,202.089 1288.986,202.693 1288.535,203.659C1288.085,204.625 1288.21,206.25 1288.91,208.534L1300.207,243.901L1313.785,198.733L1313.855,198.766L1313.862,198.733C1315.362,198.834 1316.878,198.871 1318.411,198.847C1319.945,198.822 1321.461,198.784 1322.961,198.733L1339.129,246.483L1347.086,221.358C1348.503,216.775 1349.044,213.071 1348.711,210.246C1348.378,207.421 1347.369,205.3 1345.686,203.884C1344.002,202.467 1341.761,201.651 1338.961,201.435L1338.961,198.858C1340.261,198.942 1341.69,199.017 1343.248,199.084C1344.807,199.151 1346.344,199.205 1347.861,199.247C1349.377,199.289 1350.685,199.31 1351.785,199.31C1353.452,199.31 1355.194,199.268 1357.011,199.185C1358.828,199.101 1360.278,198.993 1361.362,198.858L1361.362,201.435C1359.778,201.851 1358.261,202.801 1356.811,204.284C1355.36,205.767 1354.018,208.409 1352.785,212.21L1336.16,263.784C1334.827,263.684 1333.481,263.634 1332.123,263.634C1330.765,263.634 1329.403,263.684 1328.035,263.784L1311.118,217.458ZM804.856,341.659C821.323,341.659 833.544,345.388 841.519,352.847C849.493,360.305 853.481,370.993 853.481,384.909C853.481,393.993 851.522,401.93 847.606,408.722C843.689,415.513 838.018,420.784 830.594,424.534C823.169,428.284 814.215,430.159 803.731,430.159C802.431,430.159 800.702,430.118 798.544,430.034C796.386,429.951 794.14,429.888 791.807,429.847C789.474,429.805 787.365,429.784 785.481,429.784C781.814,429.784 778.227,429.805 774.719,429.847C771.211,429.888 768.382,429.993 766.231,430.159L766.231,427.659C768.914,427.493 770.923,427.159 772.256,426.659C773.589,426.159 774.481,425.159 774.931,423.659C775.381,422.159 775.606,419.909 775.606,416.909L775.606,354.909C775.606,351.826 775.381,349.555 774.931,348.097C774.481,346.638 773.577,345.638 772.219,345.097C770.861,344.555 768.865,344.243 766.231,344.159L766.231,341.659C768.382,341.743 771.211,341.847 774.719,341.972C778.227,342.097 781.731,342.118 785.231,342.034C788.248,341.951 791.652,341.868 795.444,341.784C799.235,341.701 802.373,341.659 804.856,341.659ZM804.731,343.909C800.897,343.909 798.397,344.618 797.231,346.034C796.064,347.451 795.481,350.326 795.481,354.659L795.481,417.159C795.481,421.493 796.085,424.368 797.293,425.784C798.502,427.201 801.022,427.909 804.856,427.909C811.89,427.909 817.432,426.263 821.482,422.972C825.532,419.68 828.419,414.868 830.144,408.534C831.868,402.201 832.731,394.493 832.731,385.409C832.731,376.076 831.802,368.347 829.944,362.222C828.086,356.097 825.111,351.513 821.019,348.472C816.927,345.43 811.498,343.909 804.731,343.909ZM881.464,391.534C881.385,392.344 881.332,393.186 881.306,394.06C881.273,395.16 881.256,396.285 881.256,397.435C881.256,403.201 882.06,407.877 883.668,411.46C885.276,415.043 887.335,417.635 889.843,419.234C892.352,420.834 894.914,421.634 897.532,421.634C899.231,421.634 901.018,421.376 902.893,420.859C904.768,420.343 906.664,419.356 908.58,417.897C910.497,416.439 912.289,414.343 913.955,411.608L916.231,412.46C915.265,415.559 913.702,418.613 911.544,421.621C909.386,424.63 906.623,427.096 903.256,429.021C899.889,430.947 895.872,431.909 891.205,431.909C885.606,431.909 880.636,430.709 876.294,428.31C871.952,425.91 868.548,422.235 866.081,417.284C863.615,412.334 862.381,406.067 862.381,398.483C862.381,390.75 863.698,384.313 866.331,379.172C868.965,374.031 872.594,370.172 877.219,367.597C881.844,365.021 887.09,363.733 892.955,363.733C900.289,363.733 906.043,365.913 910.218,370.271C914.393,374.63 916.481,381.718 916.481,391.534L881.464,391.534ZM881.138,389.159L900.731,389.159C900.848,385.076 900.615,381.305 900.032,377.847C899.448,374.388 898.523,371.618 897.256,369.534C895.989,367.451 894.314,366.409 892.231,366.409C889.348,366.409 886.89,368.238 884.856,371.896C882.899,375.417 881.659,381.171 881.138,389.159ZM984.648,382.544C984.671,383.286 984.682,384.058 984.682,384.858L984.682,418.534C984.682,422.034 985.223,424.409 986.307,425.659C987.39,426.909 989.265,427.534 991.932,427.534L991.932,430.159C990.415,430.076 988.135,429.972 985.094,429.847C982.052,429.722 979.081,429.659 976.182,429.659C973.131,429.659 970.156,429.722 967.256,429.847C964.356,429.972 962.165,430.076 960.682,430.159L960.682,427.534C962.881,427.534 964.431,426.909 965.331,425.659C966.231,424.409 966.682,422.034 966.682,418.534L966.682,379.71C966.682,377.627 966.515,375.801 966.182,374.234C965.848,372.667 965.202,371.442 964.244,370.559C963.286,369.675 961.857,369.233 959.957,369.233C957.756,369.233 955.735,369.858 953.894,371.108C952.052,372.358 950.577,374.088 949.469,376.296C948.361,378.504 947.807,380.984 947.807,383.735L947.807,418.534C947.807,422.034 948.256,424.409 949.156,425.659C950.056,426.909 951.606,427.534 953.807,427.534L953.807,430.159C952.422,430.076 950.343,429.972 947.568,429.847C944.794,429.722 941.956,429.659 939.057,429.659C935.856,429.659 932.598,429.722 929.281,429.847C925.965,429.972 923.473,430.076 921.807,430.159L921.807,427.534C924.723,427.534 926.786,426.909 927.994,425.659C929.202,424.409 929.807,422.034 929.807,418.534L929.807,379.108C929.807,375.358 929.24,372.588 928.106,370.796C926.973,369.004 924.873,368.108 921.807,368.108L921.807,365.483C924.473,365.733 927.057,365.858 929.557,365.858C933.023,365.858 936.285,365.713 939.344,365.421C942.402,365.129 945.223,364.692 947.807,364.108L947.807,375.409C949.824,371.243 952.532,368.255 955.932,366.446C959.331,364.638 963.081,363.733 967.182,363.733C970.648,363.733 973.477,364.188 975.669,365.097C977.861,366.006 979.59,367.185 980.855,368.634C982.24,370.2 983.223,372.267 983.807,374.834C983.895,375.224 983.977,375.632 984.052,376.058C986.278,371.341 989.192,368.121 992.793,366.396C996.501,364.621 1000.506,363.733 1004.807,363.733C1008.273,363.733 1011.102,364.188 1013.294,365.097C1015.486,366.006 1017.215,367.185 1018.48,368.634C1019.865,370.2 1020.848,372.267 1021.432,374.834C1022.015,377.401 1022.307,380.743 1022.307,384.858L1022.307,418.534C1022.307,422.034 1022.911,424.409 1024.119,425.659C1025.327,426.909 1027.39,427.534 1030.307,427.534L1030.307,430.159C1028.74,430.076 1026.361,429.972 1023.169,429.847C1019.977,429.722 1016.856,429.659 1013.807,429.659C1010.756,429.659 1007.781,429.722 1004.881,429.847C1001.981,429.972 999.79,430.076 998.307,430.159L998.307,427.534C1000.506,427.534 1002.056,426.909 1002.956,425.659C1003.856,424.409 1004.307,422.034 1004.307,418.534L1004.307,379.71C1004.307,377.627 1004.115,375.801 1003.731,374.234C1003.348,372.667 1002.627,371.442 1001.568,370.559C1000.51,369.675 998.931,369.233 996.832,369.233C994.631,369.233 992.61,369.909 990.769,371.259C988.927,372.609 987.452,374.405 986.344,376.646C985.453,378.448 984.888,380.414 984.648,382.544ZM1065.932,363.733C1071.964,363.733 1077.268,364.863 1081.843,367.121C1086.418,369.38 1090.014,373.009 1092.631,378.009C1095.248,383.009 1096.557,389.634 1096.557,397.884C1096.557,406.134 1095.248,412.751 1092.631,417.734C1090.014,422.718 1086.418,426.326 1081.843,428.56C1077.268,430.793 1071.964,431.909 1065.932,431.909C1059.981,431.909 1054.698,430.793 1050.081,428.56C1045.465,426.326 1041.848,422.718 1039.232,417.734C1036.615,412.751 1035.307,406.134 1035.307,397.884C1035.307,389.634 1036.615,383.009 1039.232,378.009C1041.848,373.009 1045.465,369.38 1050.081,367.121C1054.698,364.863 1059.981,363.733 1065.932,363.733ZM1065.932,366.233C1062.531,366.233 1059.722,368.717 1057.505,373.684C1055.288,378.65 1054.18,386.717 1054.18,397.884C1054.18,409.05 1055.288,417.096 1057.505,422.021C1059.722,426.947 1062.531,429.409 1065.932,429.409C1069.332,429.409 1072.14,426.947 1074.357,422.021C1076.574,417.096 1077.682,409.05 1077.682,397.884C1077.682,386.717 1076.574,378.65 1074.357,373.684C1072.14,368.717 1069.332,366.233 1065.932,366.233ZM1135.456,363.733C1138.723,363.733 1141.706,364.092 1144.406,364.809C1147.106,365.525 1149.356,366.451 1151.157,367.585C1153.273,368.884 1154.943,370.522 1156.169,372.497C1157.394,374.472 1158.006,376.718 1158.006,379.233C1158.006,382.184 1157.081,384.601 1155.231,386.484C1153.381,388.368 1151.023,389.31 1148.157,389.31C1145.223,389.31 1142.881,388.468 1141.131,386.784C1139.381,385.101 1138.506,382.859 1138.506,380.06C1138.506,377.393 1139.327,375.164 1140.968,373.372C1142.61,371.58 1144.539,370.393 1146.756,369.81C1146.073,368.959 1145.069,368.247 1143.744,367.672C1142.419,367.097 1140.923,366.81 1139.256,366.81C1136.622,366.81 1134.326,367.547 1132.368,369.021C1130.409,370.496 1128.768,372.567 1127.443,375.233C1126.118,377.9 1125.114,381.025 1124.43,384.608C1123.747,388.192 1123.405,392.117 1123.405,396.384C1123.405,402.817 1124.213,407.876 1125.831,411.56C1127.448,415.243 1129.523,417.835 1132.056,419.335C1134.589,420.835 1137.231,421.585 1139.981,421.585C1141.547,421.585 1143.268,421.318 1145.143,420.784C1147.018,420.25 1148.931,419.246 1150.88,417.771C1152.83,416.297 1154.639,414.176 1156.305,411.409L1158.532,412.21C1157.598,415.276 1156.086,418.339 1153.994,421.396C1151.902,424.454 1149.189,426.971 1145.856,428.946C1142.523,430.922 1138.456,431.909 1133.657,431.909C1128.24,431.909 1123.336,430.726 1118.944,428.359C1114.552,425.993 1111.052,422.318 1108.444,417.334C1105.836,412.35 1104.532,405.967 1104.532,398.185C1104.532,390.651 1105.873,384.33 1108.556,379.222C1111.239,374.114 1114.927,370.255 1119.619,367.646C1124.311,365.038 1129.59,363.733 1135.456,363.733ZM1206.705,363.733C1209.406,363.733 1211.598,364.304 1213.281,365.446C1214.965,366.588 1216.198,368.038 1216.982,369.797C1217.765,371.555 1218.156,373.376 1218.156,375.259C1218.156,378.342 1217.261,380.863 1215.469,382.821C1213.677,384.78 1211.323,385.759 1208.406,385.759C1205.507,385.759 1203.227,385.034 1201.568,383.584C1199.91,382.134 1199.08,380.192 1199.08,377.759C1199.08,375.425 1199.618,373.484 1200.693,371.934C1201.769,370.383 1203.073,369.101 1204.606,368.085C1203.473,367.752 1202.323,367.759 1201.156,368.108C1199.522,368.358 1197.997,369.017 1196.58,370.084C1195.164,371.151 1193.955,372.455 1192.955,373.997C1191.955,375.539 1191.176,377.201 1190.618,378.984C1190.06,380.768 1189.781,382.501 1189.781,384.185L1189.781,417.284C1189.781,421.318 1190.756,424.035 1192.706,425.435C1194.656,426.834 1197.598,427.534 1201.531,427.534L1201.531,430.159C1199.615,430.076 1196.819,429.972 1193.144,429.847C1189.469,429.722 1185.648,429.659 1181.682,429.659C1178.298,429.659 1174.897,429.722 1171.481,429.847C1168.064,429.972 1165.498,430.076 1163.781,430.159L1163.781,427.534C1166.698,427.534 1168.761,426.909 1169.969,425.659C1171.177,424.409 1171.781,422.034 1171.781,418.534L1171.781,379.108C1171.781,375.358 1171.215,372.588 1170.081,370.796C1168.948,369.004 1166.848,368.108 1163.781,368.108L1163.781,365.483C1166.448,365.733 1169.031,365.858 1171.531,365.858C1174.998,365.858 1178.26,365.713 1181.318,365.421C1184.377,365.129 1187.198,364.692 1189.781,364.108L1189.781,375.759C1190.798,373.492 1192.123,371.454 1193.756,369.646C1195.389,367.839 1197.301,366.401 1199.493,365.334C1201.685,364.267 1204.089,363.733 1206.705,363.733ZM1238.081,431.034C1234.365,431.034 1231.257,430.326 1228.757,428.909C1226.257,427.493 1224.411,425.592 1223.219,423.209C1222.027,420.826 1221.43,418.217 1221.43,415.384C1221.43,411.817 1222.247,408.905 1223.881,406.646C1225.514,404.388 1227.627,402.563 1230.219,401.172C1232.81,399.781 1235.548,398.618 1238.431,397.685C1241.315,396.751 1244.052,395.847 1246.643,394.972C1249.235,394.097 1251.347,393.063 1252.98,391.872C1254.614,390.681 1255.43,389.127 1255.43,387.21L1255.43,377.435C1255.43,375.234 1255.085,373.292 1254.393,371.609C1253.702,369.926 1252.631,368.61 1251.181,367.659C1249.732,366.709 1247.823,366.233 1245.456,366.233C1243.823,366.233 1242.169,366.463 1240.494,366.921C1238.819,367.379 1237.423,368.175 1236.305,369.31C1238.69,370.092 1240.515,371.338 1241.781,373.046C1243.047,374.754 1243.68,376.726 1243.68,378.96C1243.68,381.793 1242.714,384.026 1240.781,385.659C1238.848,387.292 1236.514,388.108 1233.78,388.108C1230.814,388.108 1228.556,387.175 1227.006,385.309C1225.456,383.442 1224.68,381.201 1224.68,378.585C1224.68,376.168 1225.285,374.156 1226.493,372.547C1227.701,370.938 1229.414,369.451 1231.632,368.085C1233.897,366.701 1236.689,365.63 1240.006,364.871C1243.323,364.113 1246.898,363.733 1250.731,363.733C1254.548,363.733 1257.989,364.129 1261.055,364.921C1264.122,365.713 1266.722,367.184 1268.856,369.335C1270.773,371.235 1272.014,373.585 1272.581,376.385C1273.147,379.185 1273.43,382.685 1273.43,386.884L1273.43,420.884C1273.43,422.967 1273.643,424.417 1274.068,425.234C1274.493,426.051 1275.197,426.46 1276.18,426.46C1276.947,426.46 1277.685,426.252 1278.393,425.835C1279.102,425.418 1279.864,424.901 1280.68,424.284L1281.981,426.409C1280.18,427.892 1278.151,429.034 1275.893,429.834C1273.636,430.634 1271.073,431.034 1268.206,431.034C1265.089,431.034 1262.626,430.605 1260.818,429.747C1259.01,428.889 1257.71,427.697 1256.919,426.172C1256.127,424.646 1255.706,422.884 1255.655,420.884C1253.706,424.034 1251.319,426.513 1248.494,428.321C1245.669,430.13 1242.198,431.034 1238.081,431.034ZM1247.007,423.034C1248.656,423.034 1250.169,422.63 1251.544,421.821C1252.919,421.013 1254.214,419.726 1255.43,417.96L1255.43,392.335C1254.68,393.551 1253.635,394.663 1252.293,395.672C1250.951,396.68 1249.53,397.701 1248.03,398.734C1246.53,399.768 1245.11,400.918 1243.768,402.185C1242.427,403.451 1241.327,404.989 1240.469,406.797C1239.61,408.605 1239.18,410.826 1239.18,413.46C1239.18,416.693 1239.902,419.097 1241.344,420.672C1242.786,422.247 1244.673,423.034 1247.007,423.034ZM1316.78,363.733C1320.047,363.733 1323.031,364.092 1325.731,364.809C1328.43,365.525 1330.681,366.451 1332.482,367.585C1334.597,368.884 1336.268,370.522 1337.493,372.497C1338.719,374.472 1339.331,376.718 1339.331,379.233C1339.331,382.184 1338.406,384.601 1336.556,386.484C1334.706,388.368 1332.347,389.31 1329.482,389.31C1326.548,389.31 1324.206,388.468 1322.456,386.784C1320.706,385.101 1319.831,382.859 1319.831,380.06C1319.831,377.393 1320.652,375.164 1322.293,373.372C1323.934,371.58 1325.864,370.393 1328.081,369.81C1327.398,368.959 1326.393,368.247 1325.068,367.672C1323.744,367.097 1322.248,366.81 1320.581,366.81C1317.947,366.81 1315.651,367.547 1313.692,369.021C1311.734,370.496 1310.093,372.567 1308.768,375.233C1307.443,377.9 1306.439,381.025 1305.755,384.608C1305.071,388.192 1304.73,392.117 1304.73,396.384C1304.73,402.817 1305.538,407.876 1307.155,411.56C1308.773,415.243 1310.848,417.835 1313.381,419.335C1315.914,420.835 1318.556,421.585 1321.306,421.585C1322.872,421.585 1324.593,421.318 1326.468,420.784C1328.343,420.25 1330.255,419.246 1332.205,417.771C1334.155,416.297 1335.963,414.176 1337.63,411.409L1339.857,412.21C1338.923,415.276 1337.41,418.339 1335.318,421.396C1333.227,424.454 1330.514,426.971 1327.181,428.946C1323.847,430.922 1319.781,431.909 1314.982,431.909C1309.565,431.909 1304.661,430.726 1300.269,428.359C1295.877,425.993 1292.377,422.318 1289.769,417.334C1287.161,412.35 1285.857,405.967 1285.857,398.185C1285.857,390.651 1287.198,384.33 1289.881,379.222C1292.564,374.114 1296.251,370.255 1300.943,367.646C1305.636,365.038 1310.914,363.733 1316.78,363.733ZM1374.113,435.374L1347.632,375.108C1346.147,371.909 1344.722,369.943 1343.355,369.209C1341.989,368.475 1340.831,368.108 1339.882,368.108L1339.882,365.483C1342.615,365.733 1345.456,365.921 1348.406,366.046C1351.356,366.171 1354.223,366.233 1357.007,366.233C1360.389,366.233 1363.506,366.15 1366.356,365.983C1369.206,365.817 1371.882,365.65 1374.382,365.483L1374.382,368.108C1372.647,368.108 1371.055,368.217 1369.605,368.434C1368.155,368.65 1367.172,369.238 1366.655,370.196C1366.138,371.155 1366.363,372.809 1367.331,375.159L1382.612,412.079L1391.257,387.983C1392.84,383.483 1393.502,379.809 1393.244,376.959C1392.985,374.109 1392.056,371.955 1390.456,370.497C1388.855,369.039 1386.706,368.226 1384.007,368.06L1384.007,365.483C1385.306,365.567 1386.673,365.642 1388.106,365.709C1389.54,365.776 1390.952,365.83 1392.343,365.872C1393.735,365.914 1394.98,365.935 1396.081,365.935C1397.747,365.935 1399.489,365.893 1401.305,365.81C1403.122,365.726 1404.572,365.618 1405.655,365.483L1405.655,368.06C1404.072,368.476 1402.576,369.447 1401.168,370.972C1399.759,372.496 1398.397,375.118 1397.081,378.835L1379.507,428.233L1374.655,441.659C1373.872,443.743 1373.044,445.518 1372.169,446.984C1371.294,448.451 1370.306,449.643 1369.206,450.56C1368.022,451.56 1366.526,452.326 1364.718,452.859C1362.91,453.393 1360.781,453.659 1358.331,453.659C1356.297,453.659 1354.234,453.317 1352.143,452.634C1350.052,451.95 1348.294,450.871 1346.869,449.396C1345.444,447.922 1344.731,445.993 1344.731,443.608C1344.731,441.059 1345.639,439.018 1347.456,437.484C1349.272,435.951 1351.697,435.185 1354.731,435.185C1357.481,435.185 1359.718,435.847 1361.443,437.172C1363.168,438.497 1364.03,440.468 1364.03,443.085C1364.03,444.752 1363.509,446.318 1362.467,447.784C1361.426,449.25 1359.872,450.358 1357.805,451.108C1358.273,451.192 1358.781,451.246 1359.331,451.271C1359.88,451.297 1360.322,451.31 1360.655,451.31C1363.155,451.31 1365.38,450.514 1367.331,448.922C1369.281,447.33 1370.848,444.826 1372.03,441.409L1374.113,435.374Z" style="fill:white;"/>
                <path d="M618.794,358.001C619.862,354.707 621.312,351.631 623.144,348.773C624.976,345.915 627.114,343.4 629.558,341.228C632.002,339.055 634.683,337.358 637.603,336.137C640.523,334.916 643.576,334.305 646.763,334.305C648.269,334.305 649.818,334.389 651.412,334.558C653.005,334.727 654.483,335.093 655.846,335.655L651.409,344.444C650.801,343.919 649.924,343.365 648.776,342.781C647.628,342.197 646.111,341.921 644.226,341.953C642.217,341.953 640.51,342.513 639.105,343.633C637.7,344.753 636.507,346.309 635.524,348.299C634.541,350.29 633.653,352.617 632.862,355.28L630.538,363.112L643.18,363.112L640.646,371.25L628.172,371.25L613.515,422.835C612.356,426.939 610.854,430.874 609.01,434.642C607.165,438.409 605.015,441.755 602.559,444.679C600.103,447.603 597.348,449.926 594.294,451.648C591.239,453.369 587.91,454.246 584.306,454.278C582.418,454.294 580.549,454.184 578.701,453.949C576.853,453.713 575.499,453.483 574.64,453.258L578.912,444.092C579.141,444.204 579.746,444.448 580.729,444.823C581.712,445.197 582.811,445.553 584.027,445.891C585.244,446.228 586.307,446.397 587.218,446.397C588.649,446.397 589.927,445.923 591.052,444.974C592.177,444.026 593.204,442.631 594.133,440.79C595.062,438.949 595.914,436.701 596.689,434.043L614.422,371.25L607.197,371.25L608.928,366.511L617.097,363.337L618.794,358.001ZM674.691,362.028C679.651,362.028 683.694,363.013 686.818,364.981C689.943,366.95 692.112,369.834 693.326,373.632C694.54,377.43 694.725,382.067 693.879,387.542C693.068,392.797 691.524,397.814 689.249,402.593C686.973,407.371 684.1,411.62 680.629,415.341C677.158,419.061 673.205,421.997 668.772,424.148C664.339,426.299 659.57,427.374 654.466,427.374C649.623,427.374 645.638,426.395 642.509,424.437C639.38,422.479 637.209,419.611 635.997,415.831C634.785,412.051 634.586,407.456 635.401,402.046C636.222,396.721 637.769,391.655 640.042,386.847C642.314,382.039 645.18,377.774 648.641,374.05C652.102,370.327 656.041,367.393 660.457,365.247C664.874,363.101 669.618,362.028 674.691,362.028ZM671.643,368.44C669.419,368.44 667.343,369.12 665.415,370.481C663.488,371.841 661.716,373.665 660.099,375.953C658.483,378.24 657.04,380.81 655.771,383.663C654.502,386.516 653.435,389.46 652.571,392.495C651.707,395.53 651.063,398.451 650.64,401.258C649.905,406.036 649.729,409.873 650.111,412.769C650.494,415.665 651.352,417.764 652.684,419.066C654.016,420.369 655.725,421.02 657.81,421.02C660.001,421.02 662.052,420.345 663.962,418.995C665.872,417.645 667.631,415.826 669.24,413.538C670.848,411.251 672.278,408.679 673.529,405.824C674.779,402.968 675.841,400.022 676.714,396.984C677.586,393.947 678.236,391.011 678.663,388.177C679.402,383.377 679.591,379.536 679.231,376.654C678.87,373.771 678.044,371.682 676.754,370.385C675.464,369.088 673.761,368.44 671.643,368.44ZM694.557,425.993L710.388,372.312L705.086,369.315L706.641,364.872L722.409,362.189L724.726,363.74L722.464,373.864L721.324,378.212C722.257,376.348 723.475,374.468 724.978,372.572C726.481,370.676 728.2,368.94 730.135,367.365C732.07,365.789 734.159,364.525 736.402,363.571C738.645,362.618 740.964,362.141 743.359,362.141C744.157,362.141 744.886,362.232 745.546,362.414C746.205,362.596 746.67,362.815 746.94,363.072L741.52,378.228C741.229,377.928 740.625,377.616 739.707,377.293C738.789,376.969 737.553,376.807 735.999,376.807C734.665,376.807 733.287,376.972 731.866,377.302C730.444,377.632 729.038,378.121 727.646,378.77C726.255,379.419 724.944,380.248 723.715,381.256C722.486,382.265 721.386,383.447 720.415,384.804L708.243,425.993L694.557,425.993Z" style="fill:rgb(53,170,243);"/>
            </g>
        </g>
    </g>
</svg>
